<svg xmlns="http://www.w3.org/2000/svg" xmlns:svg="http://www.w3.org/2000/svg" id="svg8" width="263.33" height="219.659" version="1.1" viewBox="0 0 69.673 58.118"><defs id="defs2"><marker id="DotL" orient="auto" overflow="visible" refX="0" refY="0"><path id="path4613" fill-rule="evenodd" stroke="#000" stroke-width="1.333" d="m -2.5,-1 c 0,2.76 -2.24,5 -5,5 -2.76,0 -5,-2.24 -5,-5 0,-2.76 2.24,-5 5,-5 2.76,0 5,2.24 5,5 z" transform="matrix(0.8,0,0,0.8,5.92,0.8)"/></marker></defs><metadata id="metadata5"/><g id="layer1" transform="translate(-64.4769,-146.3592)"><g id="g957" transform="translate(-0.11957199)"><path id="path4995" fill="#ff4674" fill-opacity="1" stroke="none" stroke-dasharray="none" stroke-linecap="round" stroke-linejoin="round" stroke-miterlimit="9.6" stroke-opacity="1" stroke-width=".526" d="m 84.496574,187.69197 c -0.649166,-0.20713 -1.364507,-0.71143 -3.068069,-2.16298 -1.995007,-1.69988 -2.925216,-2.18066 -4.194718,-2.16804 -1.574342,0.0155 -3.323071,0.93731 -5.269912,2.77749 l -0.784744,0.74177 0.03897,-6.77456 c 0.03839,-6.67464 0.04338,-6.78324 0.338391,-7.365 0.388777,-0.76667 1.373459,-1.67445 2.047314,-1.88743 0.399767,-0.12635 6.839396,-0.16785 25.872937,-0.16681 l 25.340687,9.5e-4 0.67896,0.33352 c 0.37344,0.18345 0.88449,0.58041 1.13564,0.88216 0.91973,1.10495 0.89312,0.8702 0.93754,8.27784 l 0.0402,6.70714 -1.03115,-1.0158 c -1.3474,-1.32733 -2.49485,-2.11026 -3.63083,-2.47744 -0.79476,-0.25687 -1.00588,-0.27482 -1.54594,-0.13138 -0.89509,0.23777 -1.16657,0.40912 -3.25653,2.05567 -2.94298,2.31861 -3.74266,2.71668 -4.81302,2.39592 -0.71094,-0.21303 -1.18145,-0.57126 -2.90603,-2.21237 -2.06309,-1.96322 -3.34904,-2.44969 -4.94099,-1.8691 -0.70823,0.2583 -1.28404,0.7099 -3.02221,2.37031 -2.612639,2.49581 -3.442005,2.45308 -6.265204,-0.3226 -1.854507,-1.82331 -2.763271,-2.3286 -4.030805,-2.2412 -1.208101,0.0833 -1.93318,0.53003 -3.68403,2.26987 -1.961799,1.94946 -2.792705,2.36248 -3.986452,1.98162 z"/><rect id="rect4985" width="56.661" height="32.607" x="71.094" y="170.314" fill="none" fill-opacity="1" stroke="#000" stroke-dasharray="none" stroke-linecap="round" stroke-linejoin="round" stroke-miterlimit="9.6" stroke-opacity="1" stroke-width="1" ry="4"/><path id="path4989" fill="none" stroke="#000" stroke-dasharray="none" stroke-linecap="butt" stroke-linejoin="miter" stroke-miterlimit="4" stroke-opacity="1" stroke-width="1" d="m 71.177216,187.4004 c 0,0 3.522401,-4.20304 6.481286,-4.14268 2.958885,0.0604 4.992403,4.25046 7.901155,4.2095 2.908753,-0.041 4.230432,-4.29096 7.032529,-4.14268 2.867368,0.15173 4.143537,4.25189 7.032529,4.14268 2.888975,-0.10921 4.252385,-4.16518 7.032525,-4.14268 2.78014,0.0225 4.35195,4.12306 7.03253,4.14268 2.68057,0.0196 5.9811,-4.40543 7.9626,-4.34313 2.85532,0.0898 6.41013,4.78211 6.10246,4.57699"/><rect id="rect826" width=".802" height="3.207" x="-69.936" y="176.187" fill="#fff" fill-opacity="1" stroke="none" stroke-dasharray="none" stroke-linecap="round" stroke-miterlimit="4" stroke-opacity="1" stroke-width="6.198" transform="rotate(-44.920604)"/><rect id="rect828" width=".802" height="3.207" x="156.599" y="115.637" fill="#fff" fill-opacity="1" stroke="none" stroke-dasharray="none" stroke-linecap="round" stroke-miterlimit="4" stroke-opacity="1" stroke-width="6.198" transform="rotate(29.696027)"/><rect id="rect830" width=".802" height="3.207" x="-197.565" y="23.082" fill="#fff" fill-opacity="1" stroke="none" stroke-dasharray="none" stroke-linecap="round" stroke-miterlimit="4" stroke-opacity="1" stroke-width="6.198" transform="rotate(-107.97936)"/><rect id="rect832" width=".802" height="3.207" x="186.461" y="52.459" fill="#fff" fill-opacity="1" stroke="none" stroke-dasharray="none" stroke-linecap="round" stroke-miterlimit="4" stroke-opacity="1" stroke-width="6.198" transform="rotate(48.062361)"/><rect id="rect834" width=".802" height="3.207" x="169.139" y="107.857" fill="#fff" fill-opacity="1" stroke="none" stroke-dasharray="none" stroke-linecap="round" stroke-miterlimit="4" stroke-opacity="1" stroke-width="6.198" transform="rotate(30.30134)"/><rect id="rect836" width=".802" height="3.207" x="165" y="112.622" fill="#fff" fill-opacity="1" stroke="none" stroke-dasharray="none" stroke-linecap="round" stroke-miterlimit="4" stroke-opacity="1" stroke-width="6.198" transform="rotate(26.503031)"/><rect id="rect838" width=".802" height="3.207" x="-25.968" y="193.649" fill="#fff" fill-opacity="1" stroke="none" stroke-dasharray="none" stroke-linecap="round" stroke-miterlimit="4" stroke-opacity="1" stroke-width="6.198" transform="rotate(-34.90618)"/><rect id="rect840" width=".802" height="3.207" x="204.393" y="15.849" fill="#fff" fill-opacity="1" stroke="none" stroke-dasharray="none" stroke-linecap="round" stroke-miterlimit="4" stroke-opacity="1" stroke-width="6.198" transform="rotate(56.387847)"/><rect id="rect842" width=".802" height="3.207" x="7.865" y="200.366" fill="#fff" fill-opacity="1" stroke="none" stroke-dasharray="none" stroke-linecap="round" stroke-miterlimit="4" stroke-opacity="1" stroke-width="6.198" transform="rotate(-28.119249)"/><rect id="rect844" width=".802" height="3.207" x="-134.995" y="154.398" fill="#fff" fill-opacity="1" stroke="none" stroke-dasharray="none" stroke-linecap="round" stroke-miterlimit="4" stroke-opacity="1" stroke-width="6.198" transform="rotate(-73.021205)"/><rect id="rect846" width=".802" height="3.207" x="96.984" y="-185.6" fill="#fff" fill-opacity="1" stroke="none" stroke-dasharray="none" stroke-linecap="round" stroke-miterlimit="4" stroke-opacity="1" stroke-width="6.198" transform="rotate(121.71845)"/><rect id="rect848" width=".802" height="3.207" x="161.284" y="134.457" fill="#fff" fill-opacity="1" stroke="none" stroke-dasharray="none" stroke-linecap="round" stroke-miterlimit="4" stroke-opacity="1" stroke-width="6.198" transform="rotate(18.014735)"/><rect id="rect850" width=".802" height="3.207" x="39.423" y="-213.761" fill="#fff" fill-opacity="1" stroke="none" stroke-dasharray="none" stroke-linecap="round" stroke-miterlimit="4" stroke-opacity="1" stroke-width="6.198" transform="rotate(137.18204)"/><rect id="rect852" width=".802" height="3.207" x="146.025" y="157.347" fill="#fff" fill-opacity="1" stroke="none" stroke-dasharray="none" stroke-linecap="round" stroke-miterlimit="4" stroke-opacity="1" stroke-width="6.198" transform="rotate(9.0254246)"/><rect id="rect854" width=".802" height="3.207" x="210.946" y="12.1" fill="#fff" fill-opacity="1" stroke="none" stroke-dasharray="none" stroke-linecap="round" stroke-miterlimit="4" stroke-opacity="1" stroke-width="6.198" transform="rotate(52.635207)"/><rect id="rect856" width=".802" height="3.207" x="172.786" y="123.578" fill="#fff" fill-opacity="1" stroke="none" stroke-dasharray="none" stroke-linecap="round" stroke-miterlimit="4" stroke-opacity="1" stroke-width="6.198" transform="rotate(18.948063)"/><rect id="rect839" width=".802" height="3.207" x="-153.992" y="-134.115" fill="#fff" fill-opacity="1" stroke="none" stroke-dasharray="none" stroke-linecap="round" stroke-miterlimit="4" stroke-opacity="1" stroke-width="6.198" transform="rotate(-155.64464)"/><rect id="rect841" width=".802" height="3.207" x="154.121" y="-142.634" fill="#fff" fill-opacity="1" stroke="none" stroke-dasharray="none" stroke-linecap="round" stroke-miterlimit="4" stroke-opacity="1" stroke-width="6.198" transform="rotate(103.72726)"/><rect id="rect843" width=".802" height="3.207" x="88.179" y="-202.387" fill="#fff" fill-opacity="1" stroke="none" stroke-dasharray="none" stroke-linecap="round" stroke-miterlimit="4" stroke-opacity="1" stroke-width="6.198" transform="rotate(121.71845)"/><rect id="rect845" width=".802" height="3.207" x="145.264" y="125.748" fill="#fff" fill-opacity="1" stroke="none" stroke-dasharray="none" stroke-linecap="round" stroke-miterlimit="4" stroke-opacity="1" stroke-width="6.198" transform="rotate(26.503031)"/><path id="path893" fill="#fff" fill-opacity="1" stroke="none" stroke-dasharray="none" stroke-linecap="round" stroke-linejoin="miter" stroke-miterlimit="4" stroke-opacity="1" stroke-width="1.081" d="m 271.00886,731.05139 v -22.085 l 5.09954,-4.65425 c 6.57948,-6.00497 12.47902,-9.19773 16.99545,-9.19773 4.23894,0 6.03124,0.93775 13.85493,7.24904 8.21295,6.6253 11.22738,8.14141 16.19293,8.14426 4.99921,0.003 7.67422,-1.3852 13.57143,-7.04223 8.47006,-8.12509 12.22261,-9.65916 17.25807,-7.05523 1.20293,0.62206 4.67073,3.45364 7.70622,6.2924 6.56183,6.13656 9.80907,7.86445 14.68714,7.81522 4.74081,-0.0479 8.0524,-1.83821 14.79876,-8.00073 6.23573,-5.69609 8.78736,-7.23789 11.97838,-7.23789 3.19103,0 5.74265,1.5418 11.97839,7.23789 6.79024,6.2026 10.067,7.96619 14.80126,7.96619 4.51295,0 8.95765,-2.18876 17.17172,-8.45607 8.10512,-6.18419 10.28603,-7.45644 12.78741,-7.45963 3.56132,-0.005 8.3446,2.90234 14.50033,8.81209 l 5.90375,5.66784 v 22.04441 22.04442 H 375.65171 271.00886 Z" transform="scale(0.26458333)"/><path id="path895" fill="#fff" fill-opacity="1" stroke="none" stroke-dasharray="none" stroke-linecap="round" stroke-linejoin="miter" stroke-miterlimit="4" stroke-opacity="1" stroke-width=".772" d="m 271.00886,731.05139 v -22.085 l 5.09954,-4.65425 c 9.04099,-8.25154 16.81511,-11.08274 22.40046,-8.15786 1.17857,0.61718 5.03571,3.44947 8.57143,6.29398 7.47729,6.01553 11.44189,7.99582 16.00787,7.99582 4.74577,0 7.80866,-1.55474 13.36302,-6.78315 6.59937,-6.21209 9.94037,-8.38168 12.90711,-8.38168 3.43549,0 5.99313,1.52018 12.12792,7.20843 6.4912,6.01871 10.05102,7.9564 14.61712,7.9564 4.64473,0 8.48321,-2.03302 15.0964,-7.99572 10.63986,-9.59329 13.24475,-9.62737 23.55141,-0.30813 7.06961,6.39232 10.31663,8.21353 14.70443,8.24751 4.83474,0.0375 8.9169,-1.92137 17.91683,-8.59738 4.16076,-3.0864 8.26711,-5.97473 9.12521,-6.41851 4.3172,-2.23274 9.76673,0.20612 17.89321,8.00787 l 5.90375,5.66784 v 22.04441 22.04442 H 375.65171 271.00886 Z" transform="scale(0.26458333)"/></g><g id="g977" transform="translate(-0.89762577)"><g id="g906" transform="translate(0,0.42522322)"><g id="g865" transform="translate(0,-0.12826238)"><rect id="rect847" width="3.916" height="15.749" x="84.005" y="154.013" fill="#fff" fill-opacity="1" stroke="#000" stroke-dasharray="none" stroke-linecap="round" stroke-miterlimit="4" stroke-opacity="1" stroke-width=".302" ry="1"/></g><path id="path897" fill="#ff0" fill-opacity="1" stroke="#000" stroke-linecap="butt" stroke-linejoin="miter" stroke-opacity="1" stroke-width=".265" d="m 86.178569,146.09301 c -2.222347,1.94851 -2.971022,6.52229 -0.09449,6.70908 3.832989,-0.089 1.508571,-5.97554 0.09449,-6.70908 z"/><path id="path899" fill="#ff0" fill-opacity="1" stroke="#000" stroke-linecap="butt" stroke-linejoin="miter" stroke-opacity="1" stroke-width=".265" d="m 86.178569,146.09301 c -2.222347,1.94851 -2.971022,6.52229 -0.09449,6.70908 3.832989,-0.089 1.508571,-5.97554 0.09449,-6.70908 z"/></g><g id="g918" transform="translate(14.12686,0.42522322)"><g id="g912" transform="translate(0,-0.12826238)"><rect id="rect908" width="3.916" height="15.749" x="84.005" y="154.013" fill="#fff" fill-opacity="1" stroke="#000" stroke-dasharray="none" stroke-linecap="round" stroke-miterlimit="4" stroke-opacity="1" stroke-width=".302" ry="1"/></g><path id="path914" fill="#ff0" fill-opacity="1" stroke="#000" stroke-linecap="butt" stroke-linejoin="miter" stroke-opacity="1" stroke-width=".265" d="m 86.178569,146.09301 c -2.222347,1.94851 -2.971022,6.52229 -0.09449,6.70908 3.832989,-0.089 1.508571,-5.97554 0.09449,-6.70908 z"/><path id="path916" fill="#ff0" fill-opacity="1" stroke="#000" stroke-linecap="butt" stroke-linejoin="miter" stroke-opacity="1" stroke-width=".265" d="m 86.178569,146.09301 c -2.222347,1.94851 -2.971022,6.52229 -0.09449,6.70908 3.832989,-0.089 1.508571,-5.97554 0.09449,-6.70908 z"/></g><g id="g930" transform="translate(28.25372,0.42522322)"><g id="g924" transform="translate(0,-0.12826238)"><rect id="rect920" width="3.916" height="15.749" x="84.005" y="154.013" fill="#fff" fill-opacity="1" stroke="#000" stroke-dasharray="none" stroke-linecap="round" stroke-miterlimit="4" stroke-opacity="1" stroke-width=".302" ry="1"/></g><path id="path926" fill="#ff0" fill-opacity="1" stroke="#000" stroke-linecap="butt" stroke-linejoin="miter" stroke-opacity="1" stroke-width=".265" d="m 86.178569,146.09301 c -2.222347,1.94851 -2.971022,6.52229 -0.09449,6.70908 3.832989,-0.089 1.508571,-5.97554 0.09449,-6.70908 z"/><path id="path928" fill="#ff0" fill-opacity="1" stroke="#000" stroke-linecap="butt" stroke-linejoin="miter" stroke-opacity="1" stroke-width=".265" d="m 86.178569,146.09301 c -2.222347,1.94851 -2.971022,6.52229 -0.09449,6.70908 3.832989,-0.089 1.508571,-5.97554 0.09449,-6.70908 z"/></g></g><rect id="rect891" width="69.359" height="3.961" x="64.634" y="200.359" fill="#834a24" fill-opacity="1" stroke="#000" stroke-dasharray="none" stroke-linecap="round" stroke-linejoin="miter" stroke-miterlimit="4" stroke-opacity="1" stroke-width=".314" ry="1.479"/></g></svg>