<?xml version="1.0" encoding="UTF-8" standalone="no"?>
<svg
   xmlns:dc="http://purl.org/dc/elements/1.1/"
   xmlns:cc="http://creativecommons.org/ns#"
   xmlns:rdf="http://www.w3.org/1999/02/22-rdf-syntax-ns#"
   xmlns:svg="http://www.w3.org/2000/svg"
   xmlns="http://www.w3.org/2000/svg"
   id="svg8"
   version="1.1"
   viewBox="0 0 70 70.000001"
   height="70mm"
   width="70mm">
  <defs
     id="defs2">
    <marker
       style="overflow:visible"
       id="DotL"
       refX="0"
       refY="0"
       orient="auto">
      <path
         transform="matrix(0.8,0,0,0.8,5.92,0.8)"
         style="fill-rule:evenodd;stroke:#000000;stroke-width:1.00000003pt"
         d="m -2.5,-1 c 0,2.76 -2.24,5 -5,5 -2.76,0 -5,-2.24 -5,-5 0,-2.76 2.24,-5 5,-5 2.76,0 5,2.24 5,5 z"
         id="path4613" />
    </marker>
  </defs>
  <metadata
     id="metadata5">
    <rdf:RDF>
      <cc:Work
         rdf:about="">
        <dc:format>image/svg+xml</dc:format>
        <dc:type
           rdf:resource="http://purl.org/dc/dcmitype/StillImage" />
        <dc:title></dc:title>
      </cc:Work>
    </rdf:RDF>
  </metadata>
  <g
     transform="translate(-64.4769,-134.47727)"
     id="layer1">
    <g
       transform="translate(12.294392,-5.949096)"
       id="g877">
      <g
         transform="matrix(1.2383285,0,0,1.2383285,-44.065262,-34.206689)"
         id="g875" />
    </g>
    <g
       id="g889"
       transform="translate(24.588796,-5.949096)">
      <g
         id="g887"
         transform="matrix(1.2383285,0,0,1.2383285,-44.065262,-34.206689)" />
    </g>
    <g
       transform="translate(-0.11957199,-5.8208336)"
       id="g957">
      <path
         style="fill:#ff4674;fill-opacity:1;stroke:none;stroke-width:0.52635586;stroke-linecap:round;stroke-linejoin:round;stroke-miterlimit:9.60000038;stroke-dasharray:none;stroke-opacity:1"
         d="m 84.496574,187.69197 c -0.649166,-0.20713 -1.364507,-0.71143 -3.068069,-2.16298 -1.995007,-1.69988 -2.925216,-2.18066 -4.194718,-2.16804 -1.574342,0.0155 -3.323071,0.93731 -5.269912,2.77749 l -0.784744,0.74177 0.03897,-6.77456 c 0.03839,-6.67464 0.04338,-6.78324 0.338391,-7.365 0.388777,-0.76667 1.373459,-1.67445 2.047314,-1.88743 0.399767,-0.12635 6.839396,-0.16785 25.872937,-0.16681 l 25.340687,9.5e-4 0.67896,0.33352 c 0.37344,0.18345 0.88449,0.58041 1.13564,0.88216 0.91973,1.10495 0.89312,0.8702 0.93754,8.27784 l 0.0402,6.70714 -1.03115,-1.0158 c -1.3474,-1.32733 -2.49485,-2.11026 -3.63083,-2.47744 -0.79476,-0.25687 -1.00588,-0.27482 -1.54594,-0.13138 -0.89509,0.23777 -1.16657,0.40912 -3.25653,2.05567 -2.94298,2.31861 -3.74266,2.71668 -4.81302,2.39592 -0.71094,-0.21303 -1.18145,-0.57126 -2.90603,-2.21237 -2.06309,-1.96322 -3.34904,-2.44969 -4.94099,-1.8691 -0.70823,0.2583 -1.28404,0.7099 -3.02221,2.37031 -2.612639,2.49581 -3.442005,2.45308 -6.265204,-0.3226 -1.854507,-1.82331 -2.763271,-2.3286 -4.030805,-2.2412 -1.208101,0.0833 -1.93318,0.53003 -3.68403,2.26987 -1.961799,1.94946 -2.792705,2.36248 -3.986452,1.98162 z"
         id="path4995" />
      <rect
         style="fill:none;fill-opacity:1;stroke:#000000;stroke-width:1;stroke-linecap:round;stroke-linejoin:round;stroke-miterlimit:9.60000038;stroke-dasharray:none;stroke-opacity:1"
         id="rect4985"
         width="56.66114"
         height="32.60688"
         x="71.093697"
         y="170.31424"
         ry="4" />
      <path
         style="fill:none;stroke:#000000;stroke-width:1;stroke-linecap:butt;stroke-linejoin:miter;stroke-miterlimit:4;stroke-dasharray:none;stroke-opacity:1"
         d="m 71.177216,187.4004 c 0,0 3.522401,-4.20304 6.481286,-4.14268 2.958885,0.0604 4.992403,4.25046 7.901155,4.2095 2.908753,-0.041 4.230432,-4.29096 7.032529,-4.14268 2.867368,0.15173 4.143537,4.25189 7.032529,4.14268 2.888975,-0.10921 4.252385,-4.16518 7.032525,-4.14268 2.78014,0.0225 4.35195,4.12306 7.03253,4.14268 2.68057,0.0196 5.9811,-4.40543 7.9626,-4.34313 2.85532,0.0898 6.41013,4.78211 6.10246,4.57699"
         id="path4989" />
      <rect
         style="fill:#ffffff;fill-opacity:1;stroke:none;stroke-width:6.19759989;stroke-linecap:round;stroke-miterlimit:4;stroke-dasharray:none;stroke-opacity:1"
         id="rect826"
         width="0.80180854"
         height="3.2072341"
         x="-69.93615"
         y="176.18666"
         transform="rotate(-44.920604)" />
      <rect
         y="115.63702"
         x="156.59865"
         height="3.2072341"
         width="0.80180854"
         id="rect828"
         style="fill:#ffffff;fill-opacity:1;stroke:none;stroke-width:6.19759989;stroke-linecap:round;stroke-miterlimit:4;stroke-dasharray:none;stroke-opacity:1"
         transform="rotate(29.696027)" />
      <rect
         style="fill:#ffffff;fill-opacity:1;stroke:none;stroke-width:6.19759989;stroke-linecap:round;stroke-miterlimit:4;stroke-dasharray:none;stroke-opacity:1"
         id="rect830"
         width="0.80180854"
         height="3.2072341"
         x="-197.56467"
         y="23.081858"
         transform="rotate(-107.97936)" />
      <rect
         y="52.459301"
         x="186.46146"
         height="3.2072341"
         width="0.80180854"
         id="rect832"
         style="fill:#ffffff;fill-opacity:1;stroke:none;stroke-width:6.19759989;stroke-linecap:round;stroke-miterlimit:4;stroke-dasharray:none;stroke-opacity:1"
         transform="rotate(48.062361)" />
      <rect
         style="fill:#ffffff;fill-opacity:1;stroke:none;stroke-width:6.19759989;stroke-linecap:round;stroke-miterlimit:4;stroke-dasharray:none;stroke-opacity:1"
         id="rect834"
         width="0.80180854"
         height="3.2072341"
         x="169.13853"
         y="107.85657"
         transform="rotate(30.30134)" />
      <rect
         y="112.62162"
         x="165.00034"
         height="3.2072341"
         width="0.80180854"
         id="rect836"
         style="fill:#ffffff;fill-opacity:1;stroke:none;stroke-width:6.19759989;stroke-linecap:round;stroke-miterlimit:4;stroke-dasharray:none;stroke-opacity:1"
         transform="rotate(26.503031)" />
      <rect
         style="fill:#ffffff;fill-opacity:1;stroke:none;stroke-width:6.19759989;stroke-linecap:round;stroke-miterlimit:4;stroke-dasharray:none;stroke-opacity:1"
         id="rect838"
         width="0.80180854"
         height="3.2072341"
         x="-25.96797"
         y="193.64915"
         transform="rotate(-34.90618)" />
      <rect
         y="15.848988"
         x="204.39297"
         height="3.2072341"
         width="0.80180854"
         id="rect840"
         style="fill:#ffffff;fill-opacity:1;stroke:none;stroke-width:6.19759989;stroke-linecap:round;stroke-miterlimit:4;stroke-dasharray:none;stroke-opacity:1"
         transform="rotate(56.387847)" />
      <rect
         style="fill:#ffffff;fill-opacity:1;stroke:none;stroke-width:6.19759989;stroke-linecap:round;stroke-miterlimit:4;stroke-dasharray:none;stroke-opacity:1"
         id="rect842"
         width="0.80180854"
         height="3.2072341"
         x="7.8648801"
         y="200.36644"
         transform="rotate(-28.119249)" />
      <rect
         y="154.39799"
         x="-134.99501"
         height="3.2072341"
         width="0.80180854"
         id="rect844"
         style="fill:#ffffff;fill-opacity:1;stroke:none;stroke-width:6.19759989;stroke-linecap:round;stroke-miterlimit:4;stroke-dasharray:none;stroke-opacity:1"
         transform="rotate(-73.021205)" />
      <rect
         style="fill:#ffffff;fill-opacity:1;stroke:none;stroke-width:6.19759989;stroke-linecap:round;stroke-miterlimit:4;stroke-dasharray:none;stroke-opacity:1"
         id="rect846"
         width="0.80180854"
         height="3.2072341"
         x="96.983658"
         y="-185.59955"
         transform="rotate(121.71845)" />
      <rect
         y="134.457"
         x="161.28433"
         height="3.2072341"
         width="0.80180854"
         id="rect848"
         style="fill:#ffffff;fill-opacity:1;stroke:none;stroke-width:6.19759989;stroke-linecap:round;stroke-miterlimit:4;stroke-dasharray:none;stroke-opacity:1"
         transform="rotate(18.014735)" />
      <rect
         style="fill:#ffffff;fill-opacity:1;stroke:none;stroke-width:6.19759989;stroke-linecap:round;stroke-miterlimit:4;stroke-dasharray:none;stroke-opacity:1"
         id="rect850"
         width="0.80180854"
         height="3.2072341"
         x="39.422787"
         y="-213.76097"
         transform="rotate(137.18204)" />
      <rect
         y="157.34654"
         x="146.02516"
         height="3.2072341"
         width="0.80180854"
         id="rect852"
         style="fill:#ffffff;fill-opacity:1;stroke:none;stroke-width:6.19759989;stroke-linecap:round;stroke-miterlimit:4;stroke-dasharray:none;stroke-opacity:1"
         transform="rotate(9.0254246)" />
      <rect
         style="fill:#ffffff;fill-opacity:1;stroke:none;stroke-width:6.19759989;stroke-linecap:round;stroke-miterlimit:4;stroke-dasharray:none;stroke-opacity:1"
         id="rect854"
         width="0.80180854"
         height="3.2072341"
         x="210.9458"
         y="12.099545"
         transform="rotate(52.635207)" />
      <rect
         y="123.57769"
         x="172.78619"
         height="3.2072341"
         width="0.80180854"
         id="rect856"
         style="fill:#ffffff;fill-opacity:1;stroke:none;stroke-width:6.19759989;stroke-linecap:round;stroke-miterlimit:4;stroke-dasharray:none;stroke-opacity:1"
         transform="rotate(18.948063)" />
      <rect
         transform="rotate(-155.64464)"
         y="-134.11516"
         x="-153.99161"
         height="3.2072341"
         width="0.80180854"
         id="rect839"
         style="fill:#ffffff;fill-opacity:1;stroke:none;stroke-width:6.19759989;stroke-linecap:round;stroke-miterlimit:4;stroke-dasharray:none;stroke-opacity:1" />
      <rect
         transform="rotate(103.72726)"
         y="-142.63429"
         x="154.12134"
         height="3.2072341"
         width="0.80180854"
         id="rect841"
         style="fill:#ffffff;fill-opacity:1;stroke:none;stroke-width:6.19759989;stroke-linecap:round;stroke-miterlimit:4;stroke-dasharray:none;stroke-opacity:1" />
      <rect
         transform="rotate(121.71845)"
         y="-202.38719"
         x="88.178917"
         height="3.2072341"
         width="0.80180854"
         id="rect843"
         style="fill:#ffffff;fill-opacity:1;stroke:none;stroke-width:6.19759989;stroke-linecap:round;stroke-miterlimit:4;stroke-dasharray:none;stroke-opacity:1" />
      <rect
         transform="rotate(26.503031)"
         style="fill:#ffffff;fill-opacity:1;stroke:none;stroke-width:6.19759989;stroke-linecap:round;stroke-miterlimit:4;stroke-dasharray:none;stroke-opacity:1"
         id="rect845"
         width="0.80180854"
         height="3.2072341"
         x="145.26424"
         y="125.74818" />
      <path
         style="fill:#ffffff;fill-opacity:1;stroke:none;stroke-width:1.0809449;stroke-linecap:round;stroke-linejoin:miter;stroke-miterlimit:4;stroke-dasharray:none;stroke-opacity:1"
         d="m 271.00886,731.05139 v -22.085 l 5.09954,-4.65425 c 6.57948,-6.00497 12.47902,-9.19773 16.99545,-9.19773 4.23894,0 6.03124,0.93775 13.85493,7.24904 8.21295,6.6253 11.22738,8.14141 16.19293,8.14426 4.99921,0.003 7.67422,-1.3852 13.57143,-7.04223 8.47006,-8.12509 12.22261,-9.65916 17.25807,-7.05523 1.20293,0.62206 4.67073,3.45364 7.70622,6.2924 6.56183,6.13656 9.80907,7.86445 14.68714,7.81522 4.74081,-0.0479 8.0524,-1.83821 14.79876,-8.00073 6.23573,-5.69609 8.78736,-7.23789 11.97838,-7.23789 3.19103,0 5.74265,1.5418 11.97839,7.23789 6.79024,6.2026 10.067,7.96619 14.80126,7.96619 4.51295,0 8.95765,-2.18876 17.17172,-8.45607 8.10512,-6.18419 10.28603,-7.45644 12.78741,-7.45963 3.56132,-0.005 8.3446,2.90234 14.50033,8.81209 l 5.90375,5.66784 v 22.04441 22.04442 H 375.65171 271.00886 Z"
         id="path893"
         transform="scale(0.26458333)" />
      <path
         style="fill:#ffffff;fill-opacity:1;stroke:none;stroke-width:0.77210349;stroke-linecap:round;stroke-linejoin:miter;stroke-miterlimit:4;stroke-dasharray:none;stroke-opacity:1"
         d="m 271.00886,731.05139 v -22.085 l 5.09954,-4.65425 c 9.04099,-8.25154 16.81511,-11.08274 22.40046,-8.15786 1.17857,0.61718 5.03571,3.44947 8.57143,6.29398 7.47729,6.01553 11.44189,7.99582 16.00787,7.99582 4.74577,0 7.80866,-1.55474 13.36302,-6.78315 6.59937,-6.21209 9.94037,-8.38168 12.90711,-8.38168 3.43549,0 5.99313,1.52018 12.12792,7.20843 6.4912,6.01871 10.05102,7.9564 14.61712,7.9564 4.64473,0 8.48321,-2.03302 15.0964,-7.99572 10.63986,-9.59329 13.24475,-9.62737 23.55141,-0.30813 7.06961,6.39232 10.31663,8.21353 14.70443,8.24751 4.83474,0.0375 8.9169,-1.92137 17.91683,-8.59738 4.16076,-3.0864 8.26711,-5.97473 9.12521,-6.41851 4.3172,-2.23274 9.76673,0.20612 17.89321,8.00787 l 5.90375,5.66784 v 22.04441 22.04442 H 375.65171 271.00886 Z"
         id="path895"
         transform="scale(0.26458333)" />
    </g>
    <g
       transform="translate(-0.89762577,-5.8208336)"
       id="g977">
      <g
         id="g906"
         transform="translate(0,0.42522322)">
        <g
           transform="translate(0,-0.12826238)"
           id="g865">
          <rect
             ry="1"
             style="fill:#ffffff;fill-opacity:1;stroke:#000000;stroke-width:0.30227378;stroke-linecap:round;stroke-miterlimit:4;stroke-dasharray:none;stroke-opacity:1"
             id="rect847"
             width="3.9164417"
             height="15.748527"
             x="84.005363"
             y="154.0132" />
          <g
             id="g858"
             transform="matrix(1.2383285,0,0,1.2383285,-44.065262,-34.206689)" />
        </g>
        <path
           id="path897"
           d="m 86.178569,146.09301 c -2.222347,1.94851 -2.971022,6.52229 -0.09449,6.70908 3.832989,-0.089 1.508571,-5.97554 0.09449,-6.70908 z"
           style="fill:#ffff00;fill-opacity:1;stroke:#000000;stroke-width:0.26458332px;stroke-linecap:butt;stroke-linejoin:miter;stroke-opacity:1" />
        <path
           style="fill:#ffff00;fill-opacity:1;stroke:#000000;stroke-width:0.26458332px;stroke-linecap:butt;stroke-linejoin:miter;stroke-opacity:1"
           d="m 86.178569,146.09301 c -2.222347,1.94851 -2.971022,6.52229 -0.09449,6.70908 3.832989,-0.089 1.508571,-5.97554 0.09449,-6.70908 z"
           id="path899" />
      </g>
      <g
         id="g918"
         transform="translate(14.12686,0.42522322)">
        <g
           id="g912"
           transform="translate(0,-0.12826238)">
          <rect
             ry="1"
             y="154.0132"
             x="84.005363"
             height="15.748527"
             width="3.9164417"
             id="rect908"
             style="fill:#ffffff;fill-opacity:1;stroke:#000000;stroke-width:0.30227378;stroke-linecap:round;stroke-miterlimit:4;stroke-dasharray:none;stroke-opacity:1" />
          <g
             transform="matrix(1.2383285,0,0,1.2383285,-44.065262,-34.206689)"
             id="g910" />
        </g>
        <path
           style="fill:#ffff00;fill-opacity:1;stroke:#000000;stroke-width:0.26458332px;stroke-linecap:butt;stroke-linejoin:miter;stroke-opacity:1"
           d="m 86.178569,146.09301 c -2.222347,1.94851 -2.971022,6.52229 -0.09449,6.70908 3.832989,-0.089 1.508571,-5.97554 0.09449,-6.70908 z"
           id="path914" />
        <path
           id="path916"
           d="m 86.178569,146.09301 c -2.222347,1.94851 -2.971022,6.52229 -0.09449,6.70908 3.832989,-0.089 1.508571,-5.97554 0.09449,-6.70908 z"
           style="fill:#ffff00;fill-opacity:1;stroke:#000000;stroke-width:0.26458332px;stroke-linecap:butt;stroke-linejoin:miter;stroke-opacity:1" />
      </g>
      <g
         transform="translate(28.25372,0.42522322)"
         id="g930">
        <g
           transform="translate(0,-0.12826238)"
           id="g924">
          <rect
             ry="1"
             style="fill:#ffffff;fill-opacity:1;stroke:#000000;stroke-width:0.30227378;stroke-linecap:round;stroke-miterlimit:4;stroke-dasharray:none;stroke-opacity:1"
             id="rect920"
             width="3.9164417"
             height="15.748527"
             x="84.005363"
             y="154.0132" />
          <g
             id="g922"
             transform="matrix(1.2383285,0,0,1.2383285,-44.065262,-34.206689)" />
        </g>
        <path
           id="path926"
           d="m 86.178569,146.09301 c -2.222347,1.94851 -2.971022,6.52229 -0.09449,6.70908 3.832989,-0.089 1.508571,-5.97554 0.09449,-6.70908 z"
           style="fill:#ffff00;fill-opacity:1;stroke:#000000;stroke-width:0.26458332px;stroke-linecap:butt;stroke-linejoin:miter;stroke-opacity:1" />
        <path
           style="fill:#ffff00;fill-opacity:1;stroke:#000000;stroke-width:0.26458332px;stroke-linecap:butt;stroke-linejoin:miter;stroke-opacity:1"
           d="m 86.178569,146.09301 c -2.222347,1.94851 -2.971022,6.52229 -0.09449,6.70908 3.832989,-0.089 1.508571,-5.97554 0.09449,-6.70908 z"
           id="path928" />
      </g>
    </g>
    <rect
       ry="1.4794333"
       y="194.53856"
       x="64.633926"
       height="3.960933"
       width="69.358627"
       id="rect891"
       style="fill:#834a24;fill-opacity:1;stroke:#000000;stroke-width:0.31405237;stroke-linecap:round;stroke-linejoin:miter;stroke-miterlimit:4;stroke-dasharray:none;stroke-opacity:1" />
  </g>
</svg>
